<svg xmlns="http://www.w3.org/2000/svg" width="600" height="400" viewBox="0 0 600 400"><rect width="100%" height="100%" fill="#0ea5e9"/><path fill="#ffffff" d="M132.57 186.575v3.1h-9.33v18.59h-4.05v-21.69zm5.2 12.23h6.99q0-.73-.2-1.36-.2-.64-.61-1.12-.4-.48-1.03-.76-.62-.27-1.44-.27-1.61 0-2.53.91-.92.92-1.18 2.6m9.45 2.23h-9.52q.09 1.19.42 2.05t.87 1.42q.54.57 1.28.84.74.28 1.64.28t1.55-.21q.66-.21 1.14-.46.49-.26.86-.47t.71-.21q.47 0 .69.34l1.07 1.36q-.62.72-1.38 1.2-.77.49-1.6.78-.83.3-1.7.41-.86.12-1.67.12-1.6 0-2.98-.53t-2.4-1.57-1.61-2.58q-.58-1.54-.58-3.57 0-1.57.51-2.96t1.46-2.41q.95-1.03 2.32-1.63 1.38-.6 3.1-.6 1.46 0 2.69.47 1.23.46 2.11 1.35.89.9 1.39 2.19.5 1.3.5 2.97 0 .84-.18 1.13t-.69.29m10.46-8.4q1.71 0 3.11.56 1.4.55 2.4 1.57t1.54 2.49.54 3.29q0 1.83-.54 3.3-.54 1.46-1.54 2.5-1 1.03-2.4 1.59-1.4.55-3.11.55-1.73 0-3.14-.55-1.41-.56-2.41-1.59-.99-1.04-1.54-2.5-.55-1.47-.55-3.3 0-1.82.55-3.29t1.54-2.49q1-1.02 2.41-1.57 1.41-.56 3.14-.56m0 13q1.92 0 2.84-1.29t.92-3.77q0-2.5-.92-3.8t-2.84-1.3q-1.95 0-2.89 1.31t-.94 3.79q0 2.47.94 3.77.94 1.29 2.89 1.29m20.85-12.76v2.75h-6.72v12.64h-3.71v-15.39zm5.89 4.5v6.9q.63.76 1.38 1.08.74.32 1.61.32.84 0 1.51-.32.68-.32 1.15-.96t.73-1.63q.25-.98.25-2.31 0-1.35-.21-2.29-.22-.94-.63-1.53-.4-.58-.98-.85t-1.31-.27q-1.16 0-1.97.49-.81.48-1.53 1.37m-.49-3.82.3 1.42q.94-1.06 2.14-1.72t2.82-.66q1.26 0 2.31.52 1.04.52 1.8 1.52.75 1 1.17 2.46.41 1.46.41 3.36 0 1.72-.47 3.19-.46 1.47-1.32 2.55-.87 1.08-2.09 1.69-1.22.6-2.74.6-1.29 0-2.2-.39-.92-.4-1.64-1.1v6.29h-3.7v-20.41h2.26q.72 0 .95.68m21.94 10.74v-2.6q-1.6.07-2.7.28-1.09.2-1.75.52-.66.31-.95.73-.28.42-.28.91 0 .98.58 1.4.57.42 1.5.42 1.14 0 1.97-.41.84-.41 1.63-1.25m-7.83-8.09-.66-1.18q2.66-2.43 6.39-2.43 1.35 0 2.42.44 1.06.44 1.8 1.23.73.79 1.11 1.88.39 1.09.39 2.4v9.72h-1.68q-.53 0-.81-.16-.29-.16-.45-.63l-.33-1.12q-.59.53-1.14.93-.56.4-1.16.66-.6.28-1.28.42t-1.51.14q-.97 0-1.8-.26-.82-.26-1.42-.79-.6-.52-.93-1.3-.33-.79-.33-1.82 0-.58.19-1.16.2-.58.64-1.1.44-.53 1.15-.99.7-.47 1.73-.82 1.03-.34 2.39-.56 1.37-.22 3.12-.26v-.9q0-1.54-.66-2.29-.66-.74-1.9-.74-.9 0-1.5.21-.59.21-1.04.47-.45.27-.82.48-.36.21-.81.21-.39 0-.66-.21-.27-.2-.44-.47m25.68-.81v10.34q2.24-.17 3.46-1.51 1.22-1.33 1.22-3.65 0-2.33-1.22-3.67-1.22-1.35-3.46-1.51m-3.24 10.34v-10.34q-1.11.09-1.97.47-.86.39-1.47 1.04-.61.66-.92 1.59-.32.92-.32 2.08 0 1.15.32 2.07.31.93.92 1.58t1.47 1.03 1.97.48m3.36-19.16v6.07q1.85.11 3.37.7 1.52.6 2.61 1.62 1.09 1.01 1.69 2.42.6 1.42.6 3.16 0 1.75-.6 3.17t-1.69 2.44-2.61 1.62q-1.52.59-3.37.7v4.95h-3.48v-4.95q-1.84-.11-3.37-.7-1.52-.6-2.61-1.62-1.08-1.02-1.68-2.44t-.6-3.17q0-1.74.6-3.16.6-1.41 1.68-2.42 1.09-1.02 2.61-1.62 1.53-.59 3.37-.7v-6.07zm22.64 6.3h2.25v15.39h-3.71v-8.98q0-.35.04-.76t.1-.83q-.3.69-.66 1.21-.03.03-.3.41-.27.39-.7.99l-.97 1.35q-.54.76-1.09 1.54-1.31 1.84-2.96 4.17-.21.32-.55.62-.33.29-.77.29h-2.26v-15.39h3.7v8.99q0 .35-.04.76-.03.41-.09.83.33-.74.66-1.21.01-.03.28-.41.27-.37.7-.97.43-.61.97-1.36.54-.76 1.09-1.55 1.31-1.85 2.97-4.17.21-.33.56-.63.34-.29.78-.29m14.35 0h3.71v15.39h-3.71v-6.04q-1.98.48-3.67.54-1.7.07-2.94-.4-1.23-.48-1.93-1.54t-.7-2.84v-5.11h3.71v4.55q0 .94.3 1.52.31.58.98.83.67.26 1.72.21 1.05-.04 2.53-.35zm10.29 5.93h6.99q0-.73-.2-1.36-.2-.64-.61-1.12-.4-.48-1.03-.76-.62-.27-1.44-.27-1.61 0-2.53.91-.92.92-1.18 2.6m9.45 2.23h-9.52q.09 1.19.42 2.05t.87 1.42q.54.57 1.28.84.74.28 1.64.28t1.55-.21q.66-.21 1.14-.46.49-.26.86-.47t.71-.21q.47 0 .69.34l1.07 1.36q-.62.72-1.38 1.2-.77.49-1.6.78-.83.3-1.7.41-.86.12-1.67.12-1.6 0-2.98-.53t-2.4-1.57-1.61-2.58q-.58-1.54-.58-3.57 0-1.57.51-2.96t1.46-2.41q.95-1.03 2.32-1.63 1.38-.6 3.1-.6 1.46 0 2.69.47 1.23.46 2.11 1.35.89.9 1.39 2.19.5 1.3.5 2.97 0 .84-.18 1.13t-.69.29m15.65-6.25-.98 1.35q-.16.21-.32.33t-.46.12q-.28 0-.55-.18-.27-.17-.65-.39-.37-.21-.89-.39-.52-.17-1.28-.17-.98 0-1.71.35-.74.35-1.23 1.01-.48.66-.72 1.6t-.24 2.13q0 1.22.26 2.18t.76 1.62q.49.65 1.2.99.7.34 1.59.34.88 0 1.43-.22t.92-.48q.38-.26.65-.48.28-.22.63-.22.45 0 .67.34l1.07 1.36q-.62.72-1.34 1.2-.72.49-1.49.78-.77.3-1.59.41-.82.12-1.63.12-1.42 0-2.68-.53t-2.21-1.55q-.94-1.02-1.49-2.5-.55-1.47-.55-3.36 0-1.7.49-3.15.49-1.44 1.43-2.5.95-1.06 2.34-1.66 1.4-.6 3.21-.6 1.73 0 3.02.56 1.3.55 2.34 1.59m9.03 3.49 2.62-4.42q.27-.44.74-.71.46-.27.99-.27h2.91l-3.59 5.72q-.37.6-.76.96-.39.37-.95.58.75.23 1.23.67t.87 1.12l3.6 6.34h-2.56q-.98 0-1.52-.33t-.91-.94l-2.27-4.27q-.3-.55-.77-.82t-1.1-.27h-1.4v6.63h-3.7v-15.39h3.7v6.35h1.2q.63 0 1.01-.24.39-.23.66-.71m21.3-5.4h2.25v15.39h-3.71v-8.98q0-.35.04-.76t.1-.83q-.3.69-.66 1.21-.03.03-.3.41-.27.39-.7.99l-.97 1.35q-.54.76-1.09 1.54-1.31 1.84-2.96 4.17-.21.32-.55.62-.33.29-.77.29h-2.26v-15.39h3.7v8.99q0 .35-.04.76-.03.41-.09.83.33-.74.66-1.21.01-.03.28-.41.27-.37.7-.97.43-.61.97-1.36.54-.76 1.09-1.55 1.31-1.85 2.97-4.17.21-.33.56-.63.34-.29.78-.29m17.49 0h2.25v15.39h-3.71v-8.98q0-.35.04-.76t.1-.83q-.3.69-.66 1.21-.03.03-.3.41-.27.39-.7.99l-.97 1.35q-.54.76-1.09 1.54-1.31 1.84-2.96 4.17-.21.32-.55.62-.33.29-.77.29h-2.26v-15.39h3.7v8.99q0 .35-.04.76-.03.41-.09.83.33-.74.66-1.21.01-.03.28-.41.27-.37.7-.97.43-.61.97-1.36.54-.76 1.09-1.55 1.31-1.85 2.97-4.17.21-.33.56-.63.34-.29.78-.29m-4.46-3.9q.56 0 .93-.12.38-.12.6-.4.23-.28.32-.74.09-.47.09-1.14h2.19q.39 0 .57.32.19.33.19.72 0 .76-.34 1.38-.35.63-.99 1.05-.65.43-1.55.66-.9.24-2.01.24t-2.01-.24q-.9-.23-1.54-.66-.65-.42-.99-1.05-.35-.62-.35-1.38 0-.39.19-.72.19-.32.58-.32h2.19q0 .67.09 1.14.09.46.31.74.23.28.59.4.37.12.94.12m30.96 10.14 5.69 9.15h-3.66q-.57 0-.96-.3-.38-.3-.71-.89l-4.62-7.28q-.18-.32-.38-.52-.2-.21-.44-.33-.23-.13-.52-.17-.29-.05-.67-.05h-2.41v9.54h-4.04v-21.69h4.04v9.09h2.04q.61 0 1.06-.21t.84-.78l4.76-7.02q.3-.48.7-.78.41-.3.98-.3h3.45l-5.9 8.7q-.37.57-.87.95-.49.37-1.09.58.9.25 1.52.8t1.19 1.51m11.1 6.62h2.76q1.17 0 1.85-.57.69-.57.69-1.57 0-.41-.12-.78-.11-.37-.39-.64-.29-.27-.77-.42-.49-.15-1.24-.15h-2.78zm2.43-10.44h-2.43v4.03h2.43q.54 0 .99-.16.45-.15.78-.45.33-.29.51-.69.18-.39.18-.88 0-.34-.12-.68-.12-.33-.4-.6-.29-.26-.76-.42-.47-.15-1.18-.15m-5.95-2.42h6.06q1.45 0 2.51.29 1.06.28 1.75.78.69.49 1.02 1.17.33.69.33 1.48 0 .5-.13 1.03t-.45 1.02q-.32.5-.88.91-.55.4-1.41.63.77.16 1.4.45.63.3 1.08.74t.7 1.03q.24.6.24 1.33 0 1.17-.49 2.03-.48.85-1.3 1.41-.82.55-1.89.82t-2.24.27h-6.3zm26.65 0h2.25v15.39h-3.7v-8.98q0-.35.03-.76.04-.41.1-.83-.3.69-.66 1.21-.03.03-.3.41-.27.39-.69.99l-.97 1.35q-.54.76-1.1 1.54-1.3 1.84-2.95 4.17-.21.32-.55.62-.34.29-.77.29h-2.27v-15.39h3.71v8.99q0 .35-.04.76t-.1.83q.33-.74.66-1.21l.29-.41q.27-.37.7-.97.42-.61.96-1.36l1.1-1.55q1.3-1.85 2.97-4.17.21-.33.55-.63.35-.29.78-.29m5.85 3.09-.84-1.42q.87-.84 2.16-1.38 1.29-.53 3.09-.53 1.43 0 2.54.34 1.11.33 1.86.91.76.58 1.16 1.32.4.75.4 1.56 0 .43-.13.9t-.42.93q-.29.45-.77.83t-1.19.65q1.26.48 2.03 1.41.78.93.78 2.3 0 1.12-.52 1.99t-1.37 1.48q-.86.61-1.96.92t-2.27.31q-.66 0-1.42-.12-.76-.11-1.52-.41-.77-.29-1.5-.78-.74-.48-1.34-1.2l1.07-1.36q.22-.34.67-.34.35 0 .66.22.32.22.73.48t.98.48 1.43.22q1.39 0 2.11-.64.72-.62.72-1.57 0-.93-.74-1.45-.74-.53-2.41-.53h-1.74v-2.42h1.74q1.46 0 2.24-.51.78-.5.78-1.34 0-.77-.69-1.26-.68-.5-2.01-.5-.8 0-1.35.17-.56.16-.96.35-.39.18-.66.35-.27.16-.51.16-.26 0-.44-.09-.18-.1-.39-.43m25.49 9.15h3.52q1.13 0 1.88-.25.76-.25 1.23-.68.46-.43.66-1.02.19-.58.19-1.26 0-.73-.19-1.33-.2-.6-.66-1.02-.47-.41-1.22-.63-.75-.23-1.87-.23h-3.54zm0-9.57h3.54q2.11 0 3.62.47 1.51.46 2.46 1.26t1.4 1.89.45 2.34q0 1.53-.53 2.77t-1.55 2.14q-1.02.89-2.5 1.37t-3.37.48h-7.56v-21.69h14.72v3.12h-10.68zm21.07-2.91q1.71 0 3.11.56 1.41.55 2.4 1.57 1 1.02 1.54 2.49t.54 3.29q0 1.83-.54 3.3-.54 1.46-1.54 2.5-.99 1.03-2.4 1.59-1.4.55-3.11.55-1.72 0-3.13-.55-1.41-.56-2.41-1.59-1-1.04-1.54-2.5-.55-1.47-.55-3.3 0-1.82.55-3.29.54-1.47 1.54-2.49t2.41-1.57q1.41-.56 3.13-.56m0 13q1.92 0 2.84-1.29.93-1.29.93-3.77 0-2.5-.93-3.8-.92-1.3-2.84-1.3-1.95 0-2.89 1.31-.93 1.31-.93 3.79 0 2.47.93 3.77.94 1.29 2.89 1.29m23.63-12.76v2.75h-5.49v12.64h-3.71v-12.64h-5.47v-2.75z"/></svg>