<svg xmlns="http://www.w3.org/2000/svg" width="600" height="400" viewBox="0 0 600 400"><rect width="100%" height="100%" fill="#14b8a6"/><path fill="#ffffff" d="M132.635 193.78h7.94q2.92 0 5.1-.73 2.17-.73 3.61-2.09 1.44-1.37 2.15-3.32.71-1.96.71-4.37 0-2.29-.71-4.14-.71-1.86-2.13-3.17-1.42-1.3-3.59-1.99-2.18-.69-5.14-.69h-7.94zm-10.62-28.72h18.56q5.73 0 9.91 1.35 4.19 1.34 6.92 3.75 2.72 2.41 4.05 5.77 1.32 3.35 1.32 7.34 0 4.15-1.38 7.61-1.39 3.45-4.15 5.94-2.77 2.49-6.93 3.87-4.17 1.38-9.74 1.38h-7.94v20.11h-10.62zm55.97 19.04.59 4.58q1.9-3.63 4.5-5.7 2.61-2.08 6.16-2.08 2.81 0 4.51 1.23l-.63 7.3q-.2.72-.58 1.01-.37.3-1 .3-.6 0-1.76-.2-1.17-.2-2.27-.2-1.62 0-2.89.48-1.26.47-2.27 1.36t-1.78 2.15q-.77 1.27-1.44 2.89v24.96h-9.75v-40.53h5.72q1.5 0 2.1.54.59.53.79 1.91m38.79-3.08q4.5 0 8.19 1.46 3.7 1.46 6.32 4.15 2.63 2.69 4.05 6.56t1.42 8.65q0 4.82-1.42 8.69t-4.05 6.59q-2.62 2.73-6.32 4.19-3.69 1.46-8.19 1.46-4.55 0-8.26-1.46t-6.34-4.19q-2.63-2.72-4.07-6.59t-1.44-8.69q0-4.78 1.44-8.65t4.07-6.56 6.34-4.15 8.26-1.46m0 34.25q5.05 0 7.48-3.4t2.43-9.95q0-6.56-2.43-10-2.43-3.43-7.48-3.43-5.14 0-7.61 3.45-2.47 3.46-2.47 9.98 0 6.51 2.47 9.93t7.61 3.42m27.76-33.62h9.8v41.91q0 2.65-.69 4.98t-2.21 4.09-3.99 2.76q-2.47 1.01-6.03 1.01-1.38 0-2.56-.18-1.19-.18-2.45-.57l.35-5.25q.12-.79.63-1.01.52-.22 1.98-.22t2.47-.29q1.01-.3 1.6-.95t.85-1.72q.25-1.07.25-2.65zm11.14-11.81q0 1.27-.51 2.37-.51 1.11-1.36 1.94t-2.02 1.32q-1.16.49-2.47.49-1.26 0-2.37-.49-1.1-.49-1.93-1.32t-1.32-1.94q-.5-1.1-.5-2.37 0-1.3.5-2.45.49-1.14 1.32-1.97t1.93-1.32q1.11-.5 2.37-.5 1.31 0 2.47.5 1.17.49 2.02 1.32t1.36 1.97q.51 1.15.51 2.45m16.32 27.42h18.4q0-1.9-.53-3.58t-1.6-2.94q-1.07-1.27-2.7-2-1.64-.73-3.82-.73-4.22 0-6.65 2.41t-3.1 6.84m24.88 5.88h-25.08q.24 3.12 1.11 5.39.86 2.27 2.29 3.76 1.42 1.48 3.37 2.21 1.96.73 4.33.73t4.09-.55q1.72-.56 3-1.23t2.25-1.22q.97-.56 1.88-.56 1.22 0 1.81.91l2.81 3.56q-1.62 1.89-3.64 3.18-2.01 1.28-4.2 2.05t-4.47 1.09q-2.27.31-4.4.31-4.23 0-7.86-1.4t-6.32-4.15q-2.69-2.74-4.23-6.79t-1.54-9.38q0-4.15 1.35-7.8 1.34-3.66 3.85-6.36 2.5-2.71 6.12-4.29 3.61-1.58 8.16-1.58 3.83 0 7.07 1.23 3.24 1.22 5.57 3.57t3.65 5.77q1.32 3.41 1.32 7.8 0 2.21-.47 2.98-.48.77-1.82.77m41.2-16.47-2.57 3.55q-.43.56-.85.87-.41.32-1.2.32-.75 0-1.46-.45-.71-.46-1.7-1.03t-2.35-1.03q-1.36-.45-3.38-.45-2.57 0-4.5.93-1.94.92-3.22 2.66t-1.92 4.21q-.63 2.47-.63 5.59 0 3.24.69 5.76.69 2.53 2 4.25 1.3 1.72 3.16 2.61 1.85.89 4.18.89t3.78-.58q1.44-.57 2.43-1.26.98-.69 1.71-1.26.73-.58 1.64-.58 1.19 0 1.78.91l2.81 3.56q-1.62 1.89-3.52 3.18-1.9 1.28-3.93 2.05t-4.19 1.09q-2.15.31-4.28.31-3.76 0-7.07-1.4-3.32-1.4-5.81-4.09-2.49-2.68-3.93-6.57-1.44-3.9-1.44-8.87 0-4.47 1.28-8.28 1.29-3.81 3.77-6.59 2.49-2.79 6.17-4.37 3.67-1.58 8.45-1.58 4.54 0 7.96 1.46 3.41 1.46 6.14 4.19m19.99 36.14q-5.3 0-8.12-2.98t-2.82-8.24v-22.63h-4.15q-.79 0-1.34-.51-.56-.52-.56-1.54v-3.87l6.52-1.07 2.05-11.06q.2-.79.75-1.23.56-.43 1.43-.43h5.05v12.76h10.83v6.95h-10.83v21.96q0 1.9.93 2.97.93 1.06 2.55 1.06.91 0 1.52-.22.61-.21 1.07-.45.45-.24.81-.45.35-.22.71-.22.43 0 .71.22.27.21.59.65l2.92 4.74q-2.13 1.77-4.9 2.68-2.76.91-5.72.91m60.87-7.94h10.27v7.31h-31.6v-7.31h11.57v-33.3q0-1.97.12-4.06l-8.22 6.87q-.71.55-1.4.69t-1.3.02q-.62-.12-1.09-.42-.47-.29-.71-.65l-3.08-4.22 17.42-14.82h8.02zm59.05-21.25q0 7.47-1.6 12.98t-4.42 9.1q-2.83 3.6-6.68 5.35-3.85 1.76-8.31 1.76-4.47 0-8.28-1.76-3.81-1.75-6.62-5.35-2.8-3.59-4.38-9.1t-1.58-12.98q0-7.5 1.58-12.99t4.38-9.09q2.81-3.59 6.62-5.35t8.28-1.76q4.46 0 8.31 1.76t6.68 5.35q2.82 3.6 4.42 9.09t1.6 12.99m-10.07 0q0-6.2-.91-10.27t-2.43-6.48-3.5-3.37q-1.97-.97-4.1-.97-2.1 0-4.05.97-1.96.96-3.46 3.37t-2.39 6.48-.89 10.27.89 10.27 2.39 6.48 3.46 3.38q1.95.96 4.05.96 2.13 0 4.1-.96 1.98-.97 3.5-3.38t2.43-6.48.91-10.27"/></svg>